<svg width="148" height="116" viewBox="0 0 148 116" fill="none" xmlns="http://www.w3.org/2000/svg">
<g clip-path="url(#clip0_1_341)">
<path fill-rule="evenodd" clip-rule="evenodd" d="M42.0462 25.3601C42.3062 25.2282 42.5662 25.4921 42.6962 25.7559C42.6962 25.7559 43.0862 27.339 43.6062 27.339C43.6062 27.6029 43.6062 27.8667 43.3462 27.9987C42.4362 28.3944 40.4862 28.9221 38.4062 28.9221C32.166 28.9221 27.746 24.4367 27.746 18.3681C27.746 11.9037 32.4261 7.81396 38.7962 7.81396C39.7062 7.81396 41.5262 8.07782 42.6962 8.34167C42.8262 8.47359 43.0862 8.73745 43.0862 9.0013V13.3549C43.0862 13.6187 42.8262 13.8826 42.5662 13.8826H41.3962C41.1362 13.8826 41.0062 13.7506 40.8762 13.4868L40.4862 11.7717C40.2262 10.8483 39.4462 10.4525 37.8861 10.4525C33.4661 10.4525 32.036 14.0145 32.036 17.7084C32.036 21.9301 33.9861 25.8878 38.9262 25.8878C39.9662 26.0198 41.3962 25.7559 42.0462 25.3601ZM51.9264 26.2836C53.4864 26.2836 54.5264 25.0963 54.5264 23.909L54.3964 21.5343C54.3964 21.4024 54.3964 21.2704 54.1364 21.2704C50.7564 21.2704 49.5863 22.4578 49.5863 24.1728C49.4563 25.3601 50.4964 26.2836 51.9264 26.2836ZM60.2465 26.5475C60.2465 26.2836 59.9865 26.1517 59.7265 26.1517C59.4665 26.2836 59.2065 26.2836 58.9465 26.2836C58.2965 26.2836 58.1665 25.8878 58.1665 25.3601V18.3681C58.1665 14.2783 55.6964 12.6952 52.0564 12.6952C50.2364 12.6952 48.2863 13.091 46.9863 13.6187C46.7263 13.7506 46.5963 14.0145 46.7263 14.2783L47.1163 16.1253C47.2463 16.5211 47.5063 16.5211 47.7663 16.3892C48.6763 15.8615 49.8463 15.5976 51.0164 15.5976C52.9664 15.5976 54.3964 16.3892 54.3964 18.1042V18.6319C54.3964 18.8958 54.2664 19.1596 54.1364 19.1596C49.5863 19.1596 45.8163 20.6108 45.8163 24.8324C45.8163 27.2071 47.5063 29.0541 50.2364 29.0541C52.7064 29.0541 53.8764 27.9987 54.7864 26.9433H54.9164C55.0464 28.1306 55.6964 29.0541 57.3865 29.0541C58.2965 29.0541 59.8565 28.7902 60.1165 28.5264C60.3765 28.3944 60.3765 28.2625 60.3765 27.9987L60.2465 26.5475ZM70.2567 15.7295C68.6967 15.7295 67.5266 16.653 67.5266 18.1042V24.1728C67.5266 25.4921 68.4367 26.2836 69.9967 26.2836C72.8567 26.2836 73.8968 23.3812 73.8968 20.7427C73.7668 18.2361 72.7267 15.7295 70.2567 15.7295ZM69.8667 34.463C70.1267 34.463 70.3867 34.1992 70.3867 33.9353V33.1438C70.3867 32.8799 70.2567 32.6161 69.9967 32.6161L68.1767 32.3522C67.9167 32.2203 67.5266 31.9564 67.5266 31.4287V28.1306C67.6567 28.1306 67.9167 28.1306 68.1767 28.1306C68.5667 28.1306 68.8267 28.2625 69.2167 28.2625C74.9368 28.2625 77.7968 24.7005 77.7968 19.5554C77.7968 15.3338 75.3268 12.4314 71.8167 12.4314C69.4767 12.4314 68.1767 13.6187 67.1366 14.806H67.0066L66.7466 13.3549C66.7466 13.091 66.4866 12.6952 66.0966 12.8272L61.2865 13.3549C61.0265 13.3549 60.7665 13.6187 60.7665 13.8826V14.6741C60.7665 14.938 60.8965 15.0699 61.1565 15.2018L62.5866 15.4657C63.1066 15.5976 63.2366 16.1253 63.2366 16.3892V31.8245C63.2366 32.4841 62.9766 32.748 62.5866 32.748L61.4165 33.1438C61.1565 33.2757 61.0265 33.4076 61.0265 33.6715V34.463C61.0265 34.7269 61.2865 34.9907 61.5465 34.9907L69.8667 34.463ZM89.367 25.7559C89.757 25.7559 90.017 25.8878 90.017 26.1517L90.537 27.7348C90.537 28.1306 90.537 28.2625 90.277 28.3944C89.367 28.9221 87.677 29.186 86.507 29.186C83.5169 29.186 81.4369 27.471 81.4369 24.4367V16.5211C81.4369 16.2572 81.3069 16.1253 81.0469 16.1253H78.9668C78.7068 16.1253 78.7068 15.9934 78.7068 15.7295L78.8368 14.0145C78.8368 14.0145 78.9668 13.7506 79.0968 13.7506H80.7869C81.1769 13.7506 81.1769 13.4868 81.1769 13.2229V11.244C81.1769 10.8483 81.3069 10.5844 81.6969 10.4525L84.5569 9.529C84.9469 9.39708 85.077 9.66093 85.077 10.0567V13.2229C85.077 13.3549 85.2069 13.6187 85.4669 13.6187H89.237C89.367 13.6187 89.497 13.7506 89.497 13.8826V15.7295C89.497 15.7295 89.367 15.9934 89.237 15.9934H85.4669C85.2069 15.9934 84.9469 16.1253 84.9469 16.3892V23.5132C84.9469 25.2282 85.857 26.2836 87.547 26.2836C88.067 26.1517 88.717 26.0198 89.367 25.7559ZM100.807 17.1807C100.807 19.2915 98.7272 19.9512 96.7772 19.9512C96.2571 19.9512 95.8671 19.9512 95.6071 19.8192C95.3471 19.8192 95.2171 19.6873 95.2171 19.4235C95.0871 17.4446 96.1271 14.806 98.4672 14.806C99.8972 14.806 100.807 15.8615 100.807 17.1807ZM103.407 25.2282C103.667 24.9644 103.927 25.2282 104.057 25.4921L104.187 27.0752C104.317 27.339 104.187 27.6029 103.927 27.7348C102.757 28.5264 100.937 28.9221 99.2472 28.9221C94.0471 28.9221 91.3171 25.624 91.3171 20.7427C91.3171 16.1253 94.8271 12.6952 99.1172 12.6952C101.977 12.6952 104.837 14.2783 104.837 17.3126C104.837 20.8747 101.197 22.1939 98.0772 22.1939C97.6872 22.1939 97.2972 22.1939 96.9072 22.1939C96.5171 22.1939 96.2571 22.1939 95.9971 22.1939C95.7371 22.1939 95.6071 22.3258 95.6071 22.5897C95.8671 24.9644 98.2072 26.4155 100.157 26.4155C101.587 26.4155 102.627 25.8878 103.407 25.4921C103.407 25.2282 103.407 25.2282 103.407 25.2282ZM115.107 28.6583C115.367 28.6583 115.627 28.3944 115.627 28.1306V27.339C115.627 27.0752 115.497 26.9433 115.237 26.8113L113.417 26.5475C113.157 26.5475 112.767 26.1517 112.767 25.624V18.7638C112.767 17.1807 114.067 16.2572 115.497 16.2572C116.147 16.2572 116.797 16.3892 117.317 16.5211C117.577 16.653 117.967 16.3892 117.967 16.2572L118.618 13.4868C118.748 13.091 118.618 12.8272 118.358 12.8272C117.968 12.5633 117.447 12.5633 117.057 12.5633C115.107 12.5633 113.807 13.8826 112.637 15.4657H112.507L112.247 13.3549C112.247 12.9591 111.987 12.6952 111.727 12.6952L106.917 13.3549C106.657 13.3549 106.397 13.6187 106.397 13.8826V14.6741C106.397 14.938 106.527 15.0699 106.787 15.2018L108.217 15.4657C108.737 15.5976 108.867 16.1253 108.867 16.3892V25.8878C108.867 26.5475 108.607 26.8113 108.217 26.8113L106.917 27.0752C106.657 27.2071 106.527 27.339 106.527 27.6029V28.3944C106.527 28.6583 106.787 28.9221 107.047 28.9221H115.107V28.6583ZM128.758 28.1306C128.758 28.3944 128.498 28.6583 128.238 28.6583H120.178C119.918 28.6583 119.658 28.3944 119.658 28.1306V27.339C119.658 27.0752 119.788 26.9433 120.048 26.8113L121.348 26.5475C121.738 26.5475 121.998 26.1517 121.998 25.624V16.1253C121.998 15.7295 121.868 15.3338 121.348 15.2018L119.918 14.938C119.658 14.806 119.528 14.6741 119.528 14.4103V13.6187C119.528 13.3549 119.788 13.091 120.048 13.091L124.858 12.4314C125.118 12.4314 125.378 12.6952 125.378 13.091L125.638 15.4657H125.768C126.938 13.8826 128.368 12.5633 130.188 12.5633C130.578 12.5633 131.098 12.5633 131.488 12.8272C131.748 12.8272 131.878 13.091 131.748 13.4868L131.098 16.2572C131.098 16.3892 130.708 16.653 130.448 16.5211C129.928 16.3892 129.278 16.2572 128.628 16.2572C127.198 16.2572 125.898 17.1807 125.898 18.7638V25.624C125.898 26.2836 126.288 26.5475 126.548 26.5475L128.368 26.8113C128.628 26.9433 128.758 27.0752 128.758 27.339V28.1306ZM142.148 23.909C142.148 25.0963 141.238 26.2836 139.548 26.2836C138.248 26.2836 137.078 25.3601 137.078 24.0409C137.078 22.3258 138.248 21.1385 141.628 21.1385C141.888 21.1385 141.888 21.2704 141.888 21.4024L142.148 23.909ZM147.348 26.1517C147.608 26.1517 147.868 26.2836 147.868 26.5475L148.128 28.1306C148.128 28.3944 148.128 28.5264 147.868 28.6583C147.478 28.9221 146.048 29.186 145.138 29.186C143.578 29.186 142.798 28.3944 142.668 27.0752H142.538C141.628 27.9987 140.328 29.186 137.988 29.186C135.258 29.186 133.568 27.339 133.568 24.9644C133.568 20.7427 137.338 19.2915 141.888 19.2915C142.018 19.2915 142.148 19.0277 142.148 18.7638V18.1042C142.148 16.2572 140.718 15.5976 138.768 15.5976C137.598 15.5976 136.298 15.9934 135.518 16.3892C135.258 16.5211 134.998 16.5211 134.868 16.1253L134.478 14.2783C134.348 14.0145 134.478 13.7506 134.738 13.6187C136.038 12.9591 137.988 12.6952 139.808 12.6952C143.448 12.6952 145.918 14.2783 145.918 18.3681V25.3601C145.918 26.0198 146.178 26.2836 146.828 26.2836C146.828 26.2836 147.088 26.2836 147.348 26.1517Z" fill="black"/>
<path fill-rule="evenodd" clip-rule="evenodd" d="M6.16565 17.4447H0.96556C0.835558 17.4447 0.705556 17.3127 0.835558 17.3127C0.705556 17.3127 0.705556 17.1808 0.705556 17.0489L0.835558 16.3892C0.96556 16.1254 0.96556 15.9935 0.96556 15.9935C0.96556 15.8615 1.09556 15.7296 1.09556 15.5977C1.09556 15.3338 1.22556 15.07 1.35557 14.8061C3.4356 7.02249 10.1957 0.953888 10.8457 0.294257C11.2357 0.162331 11.3657 0.162331 11.6257 0.294257C18.7759 6.75864 21.5059 13.223 21.7659 16.785V17.1808C21.7659 17.3127 21.6359 17.5766 21.3759 17.5766H16.0458C15.9158 17.5766 15.6558 17.5766 15.6558 17.3127C15.1358 15.07 13.1858 13.6188 11.1057 13.6188C8.89569 13.6188 7.07566 15.2019 6.55566 17.3127C6.42565 17.3127 6.42565 17.4447 6.16565 17.4447ZM15.7858 19.5555H21.1159C21.1159 19.5555 21.3759 19.5555 21.1159 19.6874C21.2459 19.6874 21.2459 19.8193 21.2459 19.9513L21.1159 20.6109C20.9859 20.7428 20.9859 20.8747 20.9859 20.8747C20.9859 21.0067 20.8559 21.1386 20.8559 21.2705C20.8559 21.5344 20.7259 21.7982 20.5959 22.0621C18.3859 29.8457 11.6257 36.0462 10.9757 36.7059C10.7157 36.8378 10.5857 36.8378 10.3257 36.7059C3.3056 30.2415 0.445551 23.7771 0.185547 20.2151V19.8193C0.185547 19.6874 0.315549 19.4235 0.575554 19.4235H5.90564C6.03565 19.4235 6.29565 19.4235 6.29565 19.6874C6.81566 21.9301 8.76569 23.3813 10.8457 23.3813C13.0558 23.3813 14.8758 21.7982 15.3958 19.6874C15.3958 19.6874 15.5258 19.5555 15.7858 19.5555Z" fill="black"/>
</g>
<path d="M1.62555 97.275H2.93055V102.135H8.57055V97.275H9.87555V108H8.57055V103.23H2.93055V108H1.62555V97.275ZM13.5834 97.275H14.8884V108H13.5834V97.275ZM23.2593 108.135C22.4293 108.135 21.6943 108 21.0543 107.73C20.4143 107.46 19.8693 107.085 19.4193 106.605C18.9793 106.115 18.6443 105.54 18.4143 104.88C18.1843 104.21 18.0693 103.485 18.0693 102.705V102.585C18.0693 101.805 18.1943 101.08 18.4443 100.41C18.6943 99.74 19.0493 99.16 19.5093 98.67C19.9693 98.18 20.5143 97.8 21.1443 97.53C21.7843 97.25 22.4893 97.11 23.2593 97.11C23.7893 97.11 24.2993 97.175 24.7893 97.305C25.2793 97.435 25.7193 97.64 26.1093 97.92C26.5093 98.19 26.8393 98.54 27.0993 98.97C27.3693 99.4 27.5443 99.915 27.6243 100.515H26.3193C26.1693 99.665 25.8193 99.06 25.2693 98.7C24.7293 98.33 24.0693 98.145 23.2893 98.145C22.6693 98.145 22.1193 98.255 21.6393 98.475C21.1593 98.685 20.7543 98.985 20.4243 99.375C20.0943 99.765 19.8443 100.23 19.6743 100.77C19.5043 101.31 19.4193 101.91 19.4193 102.57V102.69C19.4193 103.35 19.4993 103.955 19.6593 104.505C19.8293 105.045 20.0743 105.505 20.3943 105.885C20.7143 106.265 21.1143 106.56 21.5943 106.77C22.0743 106.98 22.6293 107.085 23.2593 107.085C23.8393 107.085 24.3393 106.995 24.7593 106.815C25.1793 106.635 25.5243 106.395 25.7943 106.095C26.0743 105.785 26.2793 105.425 26.4093 105.015C26.5493 104.595 26.6243 104.145 26.6343 103.665H23.4993V102.585H27.9093V103.38C27.9093 104.16 27.7943 104.845 27.5643 105.435C27.3443 106.025 27.0293 106.52 26.6193 106.92C26.2093 107.32 25.7193 107.625 25.1493 107.835C24.5793 108.035 23.9493 108.135 23.2593 108.135ZM31.0338 97.275H32.3388V102.135H37.9788V97.275H39.2838V108H37.9788V103.23H32.3388V108H31.0338V97.275ZM42.9166 97.275H49.1716V98.34H44.2216V101.985H48.2116V103.05H44.2216V106.935H49.4416V108H42.9166V97.275ZM55.8034 108.135C55.0834 108.135 54.4734 108.045 53.9734 107.865C53.4834 107.675 53.0784 107.425 52.7584 107.115C52.4384 106.805 52.1934 106.445 52.0234 106.035C51.8634 105.625 51.7584 105.19 51.7084 104.73H52.9684C53.0084 105.05 53.0784 105.355 53.1784 105.645C53.2784 105.925 53.4334 106.175 53.6434 106.395C53.8534 106.605 54.1284 106.775 54.4684 106.905C54.8184 107.025 55.2634 107.085 55.8034 107.085C56.1434 107.085 56.4634 107.04 56.7634 106.95C57.0634 106.85 57.3234 106.71 57.5434 106.53C57.7634 106.35 57.9334 106.135 58.0534 105.885C58.1834 105.635 58.2484 105.36 58.2484 105.06C58.2484 104.76 58.2084 104.5 58.1284 104.28C58.0484 104.05 57.9084 103.855 57.7084 103.695C57.5184 103.535 57.2534 103.4 56.9134 103.29C56.5834 103.18 56.1634 103.085 55.6534 103.005C55.0934 102.915 54.5884 102.8 54.1384 102.66C53.6984 102.52 53.3234 102.34 53.0134 102.12C52.7034 101.89 52.4684 101.61 52.3084 101.28C52.1484 100.94 52.0684 100.53 52.0684 100.05C52.0684 99.64 52.1534 99.26 52.3234 98.91C52.4934 98.55 52.7284 98.24 53.0284 97.98C53.3384 97.72 53.7034 97.515 54.1234 97.365C54.5434 97.215 55.0084 97.14 55.5184 97.14C56.5984 97.14 57.4534 97.395 58.0834 97.905C58.7234 98.405 59.0984 99.135 59.2084 100.095H58.0384C57.9084 99.415 57.6434 98.93 57.2434 98.64C56.8434 98.34 56.2684 98.19 55.5184 98.19C54.7784 98.19 54.2184 98.355 53.8384 98.685C53.4684 99.005 53.2834 99.42 53.2834 99.93C53.2834 100.19 53.3134 100.425 53.3734 100.635C53.4434 100.835 53.5684 101.01 53.7484 101.16C53.9384 101.31 54.1984 101.445 54.5284 101.565C54.8684 101.675 55.3134 101.77 55.8634 101.85C56.4634 101.94 56.9884 102.06 57.4384 102.21C57.8884 102.36 58.2684 102.555 58.5784 102.795C58.8884 103.035 59.1184 103.33 59.2684 103.68C59.4284 104.03 59.5084 104.46 59.5084 104.97C59.5084 105.42 59.4134 105.84 59.2234 106.23C59.0434 106.61 58.7884 106.945 58.4584 107.235C58.1284 107.515 57.7334 107.735 57.2734 107.895C56.8234 108.055 56.3334 108.135 55.8034 108.135ZM64.4927 98.34H61.3727V97.275H68.9177V98.34H65.7977V108H64.4927V98.34ZM76.356 97.275H79.581C80.091 97.275 80.571 97.33 81.021 97.44C81.481 97.55 81.881 97.725 82.221 97.965C82.561 98.205 82.831 98.515 83.031 98.895C83.231 99.265 83.331 99.72 83.331 100.26V100.32C83.331 100.76 83.261 101.15 83.121 101.49C82.981 101.82 82.791 102.105 82.551 102.345C82.311 102.575 82.031 102.765 81.711 102.915C81.391 103.065 81.046 103.175 80.676 103.245L83.961 108H82.506L79.311 103.335H77.661V108H76.356V97.275ZM79.671 102.3C80.441 102.3 81.026 102.135 81.426 101.805C81.826 101.475 82.026 100.98 82.026 100.32V100.26C82.026 99.9 81.971 99.595 81.861 99.345C81.751 99.095 81.596 98.895 81.396 98.745C81.196 98.595 80.946 98.49 80.646 98.43C80.356 98.36 80.031 98.325 79.671 98.325H77.661V102.3H79.671ZM89.5807 97.275H91.2907L94.9207 108H93.6307L92.5807 104.91H88.1557L87.1207 108H85.8907L89.5807 97.275ZM88.5157 103.875H92.2357L90.3757 98.355L88.5157 103.875ZM98.8843 98.34H95.7643V97.275H103.309V98.34H100.189V108H98.8843V98.34ZM106.028 97.275H112.283V98.34H107.333V101.985H111.323V103.05H107.333V106.935H112.553V108H106.028V97.275ZM118.225 106.935C118.915 106.935 119.515 106.835 120.025 106.635C120.545 106.435 120.975 106.15 121.315 105.78C121.665 105.41 121.925 104.965 122.095 104.445C122.275 103.915 122.365 103.32 122.365 102.66V102.54C122.365 101.92 122.285 101.355 122.125 100.845C121.975 100.325 121.73 99.88 121.39 99.51C121.06 99.13 120.63 98.84 120.1 98.64C119.58 98.43 118.95 98.325 118.21 98.325H116.755V106.935H118.225ZM115.45 97.275H118.285C119.205 97.275 120.005 97.41 120.685 97.68C121.365 97.95 121.93 98.32 122.38 98.79C122.83 99.26 123.165 99.815 123.385 100.455C123.605 101.095 123.715 101.79 123.715 102.54V102.675C123.715 103.415 123.605 104.11 123.385 104.76C123.175 105.41 122.845 105.975 122.395 106.455C121.945 106.935 121.375 107.315 120.685 107.595C120.005 107.865 119.195 108 118.255 108H115.45V97.275Z" fill="black"/>
<g clip-path="url(#clip1_1_341)">
<path fill-rule="evenodd" clip-rule="evenodd" d="M10.0143 57L7.64594 64.3134H0.185547L6.34333 68.9788L3.97495 76.4183L10.0143 71.7528L16.1721 76.4183L13.8037 68.9788L19.8431 64.3134H12.3827L10.0143 57Z" fill="black"/>
<path fill-rule="evenodd" clip-rule="evenodd" d="M35.9499 57L33.5815 64.3134H26.0027L32.0421 68.9788L29.7921 76.4183L35.9499 71.7528L41.9893 76.4183L39.6209 68.9788L45.7786 64.3134H38.1999L35.9499 57Z" fill="black"/>
<path fill-rule="evenodd" clip-rule="evenodd" d="M62.8303 57L60.462 64.3134H53.0016L59.1594 68.9788L56.7909 76.4183L62.8303 71.7528L68.9881 76.4183L66.6197 68.9788L72.6591 64.3134H65.1987L62.8303 57Z" fill="black"/>
<path fill-rule="evenodd" clip-rule="evenodd" d="M89.8292 57L87.5793 64.3134H80.0005L86.0398 68.9788L83.6715 76.4183L89.8292 71.7528L95.8687 76.4183L93.6187 68.9788L99.7767 64.3134H92.1977L89.8292 57Z" fill="black"/>
<path fill-rule="evenodd" clip-rule="evenodd" d="M115.643 57L113.274 64.3134H105.813L111.853 68.9788L109.603 76.4183L115.643 71.7528L121.801 76.4183L119.432 68.9788L125.471 64.3134H117.893L115.643 57Z" fill="black"/>
</g>
<defs>
<clipPath id="clip0_1_341">
<rect width="147.813" height="37" fill="white" transform="translate(0.185547)"/>
</clipPath>
<clipPath id="clip1_1_341">
<rect width="126.133" height="20" fill="white" transform="translate(0.185547 57)"/>
</clipPath>
</defs>
</svg>
