<svg width="127" height="116" viewBox="0 0 127 116" fill="none" xmlns="http://www.w3.org/2000/svg">
<g clip-path="url(#clip0_1_326)">
<path d="M18.0378 0.257324C19.1845 0.257324 20.4586 0.257324 21.6052 0.643039L18.0378 7.71447C12.6867 7.32875 7.97265 11.7002 7.59043 17.3573C7.33561 23.0145 11.4126 27.9002 16.8912 28.1573H18.0378C20.4586 28.1573 22.7519 27.2573 24.5356 25.7145L28.3578 32.5288C25.4275 34.7145 21.8601 36.0002 17.9104 36.0002C8.48228 36.2573 0.45561 28.9288 0.0733882 18.9002C-0.181427 9.00018 6.95339 0.643039 16.5089 0.257324H18.0378Z" fill="#1D1D1B"/>
<path d="M21.8597 15.5571L17.4005 23.2714H26.0642L30.1412 30.7286L34.6005 23.2714L30.1412 15.5571H21.8597Z" fill="#1D1D1B"/>
<path d="M23.0064 12.7287C23.0064 11.443 23.2612 10.2858 23.8983 9.25725C24.5353 8.35725 25.682 7.32868 26.5738 6.8144L27.2109 6.42868C28.3575 5.78583 28.7397 5.52868 28.7397 4.88583C28.7397 4.24297 27.8479 3.60011 27.2109 3.60011C26.0642 3.60011 25.0449 4.24297 24.5353 5.52868L23.0064 4.1144C23.2612 3.47154 23.8983 2.82868 24.5353 2.18583C25.4272 1.54297 26.319 1.54297 27.2109 1.54297C28.1027 1.54297 29.3768 1.92868 29.8864 2.44297C30.396 3.08583 31.0331 3.98583 31.0331 4.88583C31.0331 6.42868 30.1412 7.7144 28.3575 8.35725L27.4657 9.00011C26.5738 9.64297 25.9368 9.90011 25.682 10.9287H31.0331V13.1144C31.0331 12.9858 23.0064 12.7287 23.0064 12.7287Z" fill="#1D1D1B"/>
</g>
<path d="M5.27806 107.135C4.03806 107.135 3.08306 106.79 2.41306 106.1C1.75306 105.4 1.42306 104.395 1.42306 103.085V96.275H2.72806V102.935C2.72806 103.495 2.77806 103.975 2.87806 104.375C2.97806 104.765 3.13306 105.085 3.34306 105.335C3.55306 105.585 3.81806 105.77 4.13806 105.89C4.46806 106 4.85806 106.055 5.30806 106.055C5.73806 106.055 6.11806 106.005 6.44806 105.905C6.78806 105.805 7.07306 105.63 7.30306 105.38C7.54306 105.13 7.72306 104.795 7.84306 104.375C7.97306 103.945 8.03806 103.4 8.03806 102.74V96.275H9.34306V102.92C9.34306 104.23 9.00806 105.26 8.33806 106.01C7.67806 106.76 6.65806 107.135 5.27806 107.135ZM16.3482 107.135C15.6282 107.135 15.0182 107.045 14.5182 106.865C14.0282 106.675 13.6232 106.425 13.3032 106.115C12.9832 105.805 12.7382 105.445 12.5682 105.035C12.4082 104.625 12.3032 104.19 12.2532 103.73H13.5132C13.5532 104.05 13.6232 104.355 13.7232 104.645C13.8232 104.925 13.9782 105.175 14.1882 105.395C14.3982 105.605 14.6732 105.775 15.0132 105.905C15.3632 106.025 15.8082 106.085 16.3482 106.085C16.6882 106.085 17.0082 106.04 17.3082 105.95C17.6082 105.85 17.8682 105.71 18.0882 105.53C18.3082 105.35 18.4782 105.135 18.5982 104.885C18.7282 104.635 18.7932 104.36 18.7932 104.06C18.7932 103.76 18.7532 103.5 18.6732 103.28C18.5932 103.05 18.4532 102.855 18.2532 102.695C18.0632 102.535 17.7982 102.4 17.4582 102.29C17.1282 102.18 16.7082 102.085 16.1982 102.005C15.6382 101.915 15.1332 101.8 14.6832 101.66C14.2432 101.52 13.8682 101.34 13.5582 101.12C13.2482 100.89 13.0132 100.61 12.8532 100.28C12.6932 99.94 12.6132 99.53 12.6132 99.05C12.6132 98.64 12.6982 98.26 12.8682 97.91C13.0382 97.55 13.2732 97.24 13.5732 96.98C13.8832 96.72 14.2482 96.515 14.6682 96.365C15.0882 96.215 15.5532 96.14 16.0632 96.14C17.1432 96.14 17.9982 96.395 18.6282 96.905C19.2682 97.405 19.6432 98.135 19.7532 99.095H18.5832C18.4532 98.415 18.1882 97.93 17.7882 97.64C17.3882 97.34 16.8132 97.19 16.0632 97.19C15.3232 97.19 14.7632 97.355 14.3832 97.685C14.0132 98.005 13.8282 98.42 13.8282 98.93C13.8282 99.19 13.8582 99.425 13.9182 99.635C13.9882 99.835 14.1132 100.01 14.2932 100.16C14.4832 100.31 14.7432 100.445 15.0732 100.565C15.4132 100.675 15.8582 100.77 16.4082 100.85C17.0082 100.94 17.5332 101.06 17.9832 101.21C18.4332 101.36 18.8132 101.555 19.1232 101.795C19.4332 102.035 19.6632 102.33 19.8132 102.68C19.9732 103.03 20.0532 103.46 20.0532 103.97C20.0532 104.42 19.9582 104.84 19.7682 105.23C19.5882 105.61 19.3332 105.945 19.0032 106.235C18.6732 106.515 18.2782 106.735 17.8182 106.895C17.3682 107.055 16.8782 107.135 16.3482 107.135ZM23.2133 96.275H29.4683V97.34H24.5183V100.985H28.5083V102.05H24.5183V105.935H29.7383V107H23.2133V96.275ZM32.6351 96.275H35.8601C36.3701 96.275 36.8501 96.33 37.3001 96.44C37.7601 96.55 38.1601 96.725 38.5001 96.965C38.8401 97.205 39.1101 97.515 39.3101 97.895C39.5101 98.265 39.6101 98.72 39.6101 99.26V99.32C39.6101 99.76 39.5401 100.15 39.4001 100.49C39.2601 100.82 39.0701 101.105 38.8301 101.345C38.5901 101.575 38.3101 101.765 37.9901 101.915C37.6701 102.065 37.3251 102.175 36.9551 102.245L40.2401 107H38.7851L35.5901 102.335H33.9401V107H32.6351V96.275ZM35.9501 101.3C36.7201 101.3 37.3051 101.135 37.7051 100.805C38.1051 100.475 38.3051 99.98 38.3051 99.32V99.26C38.3051 98.9 38.2501 98.595 38.1401 98.345C38.0301 98.095 37.8751 97.895 37.6751 97.745C37.4751 97.595 37.2251 97.49 36.9251 97.43C36.6351 97.36 36.3101 97.325 35.9501 97.325H33.9401V101.3H35.9501ZM46.2984 107.135C45.5784 107.135 44.9684 107.045 44.4684 106.865C43.9784 106.675 43.5734 106.425 43.2534 106.115C42.9334 105.805 42.6884 105.445 42.5184 105.035C42.3584 104.625 42.2534 104.19 42.2034 103.73H43.4634C43.5034 104.05 43.5734 104.355 43.6734 104.645C43.7734 104.925 43.9284 105.175 44.1384 105.395C44.3484 105.605 44.6234 105.775 44.9634 105.905C45.3134 106.025 45.7584 106.085 46.2984 106.085C46.6384 106.085 46.9584 106.04 47.2584 105.95C47.5584 105.85 47.8184 105.71 48.0384 105.53C48.2584 105.35 48.4284 105.135 48.5484 104.885C48.6784 104.635 48.7434 104.36 48.7434 104.06C48.7434 103.76 48.7034 103.5 48.6234 103.28C48.5434 103.05 48.4034 102.855 48.2034 102.695C48.0134 102.535 47.7484 102.4 47.4084 102.29C47.0784 102.18 46.6584 102.085 46.1484 102.005C45.5884 101.915 45.0834 101.8 44.6334 101.66C44.1934 101.52 43.8184 101.34 43.5084 101.12C43.1984 100.89 42.9634 100.61 42.8034 100.28C42.6434 99.94 42.5634 99.53 42.5634 99.05C42.5634 98.64 42.6484 98.26 42.8184 97.91C42.9884 97.55 43.2234 97.24 43.5234 96.98C43.8334 96.72 44.1984 96.515 44.6184 96.365C45.0384 96.215 45.5034 96.14 46.0134 96.14C47.0934 96.14 47.9484 96.395 48.5784 96.905C49.2184 97.405 49.5934 98.135 49.7034 99.095H48.5334C48.4034 98.415 48.1384 97.93 47.7384 97.64C47.3384 97.34 46.7634 97.19 46.0134 97.19C45.2734 97.19 44.7134 97.355 44.3334 97.685C43.9634 98.005 43.7784 98.42 43.7784 98.93C43.7784 99.19 43.8084 99.425 43.8684 99.635C43.9384 99.835 44.0634 100.01 44.2434 100.16C44.4334 100.31 44.6934 100.445 45.0234 100.565C45.3634 100.675 45.8084 100.77 46.3584 100.85C46.9584 100.94 47.4834 101.06 47.9334 101.21C48.3834 101.36 48.7634 101.555 49.0734 101.795C49.3834 102.035 49.6134 102.33 49.7634 102.68C49.9234 103.03 50.0034 103.46 50.0034 103.97C50.0034 104.42 49.9084 104.84 49.7184 105.23C49.5384 105.61 49.2834 105.945 48.9534 106.235C48.6234 106.515 48.2284 106.735 47.7684 106.895C47.3184 107.055 46.8284 107.135 46.2984 107.135ZM57.8832 96.275H59.1882V105.935H64.0932V107H57.8832V96.275ZM71.1672 106.055C71.7672 106.055 72.3022 105.95 72.7722 105.74C73.2522 105.52 73.6572 105.22 73.9872 104.84C74.3172 104.45 74.5722 103.985 74.7522 103.445C74.9322 102.905 75.0222 102.31 75.0222 101.66V101.54C75.0222 100.94 74.9322 100.375 74.7522 99.845C74.5822 99.315 74.3322 98.855 74.0022 98.465C73.6722 98.075 73.2672 97.765 72.7872 97.535C72.3072 97.305 71.7572 97.19 71.1372 97.19C70.5172 97.19 69.9622 97.3 69.4722 97.52C68.9822 97.73 68.5672 98.03 68.2272 98.42C67.8972 98.81 67.6422 99.275 67.4622 99.815C67.2922 100.345 67.2072 100.93 67.2072 101.57V101.69C67.2072 102.34 67.3072 102.935 67.5072 103.475C67.7172 104.005 67.9972 104.465 68.3472 104.855C68.7072 105.235 69.1272 105.53 69.6072 105.74C70.0872 105.95 70.6072 106.055 71.1672 106.055ZM71.1672 107.135C70.3772 107.135 69.6522 106.995 68.9922 106.715C68.3422 106.425 67.7822 106.035 67.3122 105.545C66.8522 105.055 66.4922 104.48 66.2322 103.82C65.9822 103.16 65.8572 102.455 65.8572 101.705V101.585C65.8572 100.825 65.9822 100.115 66.2322 99.455C66.4922 98.785 66.8522 98.205 67.3122 97.715C67.7822 97.225 68.3372 96.84 68.9772 96.56C69.6272 96.28 70.3472 96.14 71.1372 96.14C71.9272 96.14 72.6422 96.28 73.2822 96.56C73.9222 96.84 74.4722 97.225 74.9322 97.715C75.3922 98.205 75.7472 98.78 75.9972 99.44C76.2472 100.1 76.3722 100.805 76.3722 101.555V101.675C76.3722 102.435 76.2472 103.145 75.9972 103.805C75.7472 104.465 75.3922 105.045 74.9322 105.545C74.4822 106.035 73.9372 106.425 73.2972 106.715C72.6572 106.995 71.9472 107.135 71.1672 107.135ZM78.1267 96.275H79.4167L82.6117 105.74L85.8067 96.275H87.0367L83.3317 107H81.7717L78.1267 96.275ZM89.767 96.275H96.022V97.34H91.072V100.985H95.062V102.05H91.072V105.935H96.292V107H89.767V96.275ZM107.674 107.135C106.434 107.135 105.479 106.79 104.809 106.1C104.149 105.4 103.819 104.395 103.819 103.085V96.275H105.124V102.935C105.124 103.495 105.174 103.975 105.274 104.375C105.374 104.765 105.529 105.085 105.739 105.335C105.949 105.585 106.214 105.77 106.534 105.89C106.864 106 107.254 106.055 107.704 106.055C108.134 106.055 108.514 106.005 108.844 105.905C109.184 105.805 109.469 105.63 109.699 105.38C109.939 105.13 110.119 104.795 110.239 104.375C110.369 103.945 110.434 103.4 110.434 102.74V96.275H111.739V102.92C111.739 104.23 111.404 105.26 110.734 106.01C110.074 106.76 109.054 107.135 107.674 107.135ZM118.744 107.135C118.024 107.135 117.414 107.045 116.914 106.865C116.424 106.675 116.019 106.425 115.699 106.115C115.379 105.805 115.134 105.445 114.964 105.035C114.804 104.625 114.699 104.19 114.649 103.73H115.909C115.949 104.05 116.019 104.355 116.119 104.645C116.219 104.925 116.374 105.175 116.584 105.395C116.794 105.605 117.069 105.775 117.409 105.905C117.759 106.025 118.204 106.085 118.744 106.085C119.084 106.085 119.404 106.04 119.704 105.95C120.004 105.85 120.264 105.71 120.484 105.53C120.704 105.35 120.874 105.135 120.994 104.885C121.124 104.635 121.189 104.36 121.189 104.06C121.189 103.76 121.149 103.5 121.069 103.28C120.989 103.05 120.849 102.855 120.649 102.695C120.459 102.535 120.194 102.4 119.854 102.29C119.524 102.18 119.104 102.085 118.594 102.005C118.034 101.915 117.529 101.8 117.079 101.66C116.639 101.52 116.264 101.34 115.954 101.12C115.644 100.89 115.409 100.61 115.249 100.28C115.089 99.94 115.009 99.53 115.009 99.05C115.009 98.64 115.094 98.26 115.264 97.91C115.434 97.55 115.669 97.24 115.969 96.98C116.279 96.72 116.644 96.515 117.064 96.365C117.484 96.215 117.949 96.14 118.459 96.14C119.539 96.14 120.394 96.395 121.024 96.905C121.664 97.405 122.039 98.135 122.149 99.095H120.979C120.849 98.415 120.584 97.93 120.184 97.64C119.784 97.34 119.209 97.19 118.459 97.19C117.719 97.19 117.159 97.355 116.779 97.685C116.409 98.005 116.224 98.42 116.224 98.93C116.224 99.19 116.254 99.425 116.314 99.635C116.384 99.835 116.509 100.01 116.689 100.16C116.879 100.31 117.139 100.445 117.469 100.565C117.809 100.675 118.254 100.77 118.804 100.85C119.404 100.94 119.929 101.06 120.379 101.21C120.829 101.36 121.209 101.555 121.519 101.795C121.829 102.035 122.059 102.33 122.209 102.68C122.369 103.03 122.449 103.46 122.449 103.97C122.449 104.42 122.354 104.84 122.164 105.23C121.984 105.61 121.729 105.945 121.399 106.235C121.069 106.515 120.674 106.735 120.214 106.895C119.764 107.055 119.274 107.135 118.744 107.135Z" fill="black"/>
<g clip-path="url(#clip1_1_326)">
<path fill-rule="evenodd" clip-rule="evenodd" d="M9.90183 56L7.53345 63.3134H0.0730591L6.23084 67.9788L3.86246 75.4183L9.90183 70.7528L16.0596 75.4183L13.6912 67.9788L19.7306 63.3134H12.2702L9.90183 56Z" fill="black"/>
<path fill-rule="evenodd" clip-rule="evenodd" d="M35.8374 56L33.469 63.3134H25.8902L31.9296 67.9788L29.6796 75.4183L35.8374 70.7528L41.8768 75.4183L39.5084 67.9788L45.6661 63.3134H38.0874L35.8374 56Z" fill="black"/>
<path fill-rule="evenodd" clip-rule="evenodd" d="M62.7178 56L60.3495 63.3134H52.8891L59.0469 67.9788L56.6784 75.4183L62.7178 70.7528L68.8756 75.4183L66.5073 67.9788L72.5466 63.3134H65.0862L62.7178 56Z" fill="black"/>
<path fill-rule="evenodd" clip-rule="evenodd" d="M89.7167 56L87.4668 63.3134H79.8879L85.9273 67.9788L83.5589 75.4183L89.7167 70.7528L95.7561 75.4183L93.5061 67.9788L99.6642 63.3134H92.0851L89.7167 56Z" fill="black"/>
<path fill-rule="evenodd" clip-rule="evenodd" d="M115.53 56L113.162 63.3134H105.701L111.741 67.9788L109.491 75.4183L115.53 70.7528L121.688 75.4183L119.319 67.9788L125.359 63.3134H117.78L115.53 56Z" fill="black"/>
</g>
<defs>
<clipPath id="clip0_1_326">
<rect width="126.133" height="36" fill="white" transform="translate(0.0730591)"/>
</clipPath>
<clipPath id="clip1_1_326">
<rect width="126.133" height="20" fill="white" transform="translate(0.0730591 56)"/>
</clipPath>
</defs>
</svg>
