<svg width="80" height="32" viewBox="0 0 80 32" fill="none" xmlns="http://www.w3.org/2000/svg">
<g clip-path="url(#clip0_1_393)">
<path d="M13.5341 5.95538C13.2673 5.71906 13.0006 5.71906 12.6893 6.00263C11.2221 6.56983 8.46531 8.55506 7.79836 8.4133C8.90996 6.80621 10.1105 5.24637 11.4888 3.82835C12.0668 2.97753 11.3109 2.78847 11.2221 2.31579C11.0442 1.70131 11.1331 1.03958 11.3109 0.472365C11.5778 -0.000308482 11.0442 -0.0948433 10.7329 0.0942261C7.13141 4.06468 4.06345 8.03517 1.2178 12.0529C0.773169 12.6673 0.862096 13.14 1.17334 13.5182L2.68509 15.5506C2.99633 16.1179 3.48543 16.2124 4.10791 15.787L8.86549 12.3838C6.95358 15.6924 5.13057 19.4266 3.75221 23.9642C3.12972 25.9022 4.86379 28.8328 7.22035 31.9051C7.48712 32.236 8.02066 31.9051 7.66495 31.2434C5.39735 26.753 7.26482 19.8047 14.5568 9.5477C14.9125 9.12231 15.0459 8.69687 14.7791 8.27149L13.5341 5.95538Z" fill="#1D1D1B"/>
<path d="M32.2976 11.8632L32.9201 9.31081C33.0535 8.93267 33.3203 8.74361 33.676 8.69635H35.8102H36.4327L36.7884 7.51465H35.8547L32.9201 7.5619C32.2976 7.51465 31.8086 7.75102 31.4973 8.50729L29.8966 15.1247L29.2741 17.7244C29.0963 18.2916 29.2297 18.7643 29.8966 18.9534C29.9411 18.9534 30.03 19.0006 30.0745 19.0006H33.8094L34.1206 17.819H31.275C31.0527 17.6298 30.8748 17.6298 30.9637 17.0626L31.6307 14.2739C31.7196 13.943 31.8975 13.7067 32.2087 13.7067H34.3874L34.6987 12.7141H32.4755C32.2087 12.525 32.1642 12.2414 32.2976 11.8632Z" fill="#1D1D1B"/>
<path d="M36.6993 17.063C38.1666 10.9655 37.2773 14.6051 38.6112 9.3111C38.7446 8.93297 39.0114 8.7439 39.3671 8.69665H41.368H42.0794L42.3462 7.75132L42.4351 7.46769H42.3462H41.368H38.5668C37.9443 7.42044 37.4107 7.65676 37.144 8.41302L35.8101 13.9433L34.9208 17.5829C34.7429 18.2447 34.8764 18.7173 35.7211 18.8592H35.7656H39.4561L39.7673 17.6775H36.9217C36.7883 17.6775 36.6104 17.6302 36.6993 17.063Z" fill="#1D1D1B"/>
<path d="M22.3827 13.4705L20.2484 11.4853C19.8038 10.9181 20.2484 8.79103 21.1822 8.74377H23.5387H24.3391L24.6058 7.60938H23.5387H20.6041C19.3592 7.8457 18.3365 10.5872 18.8256 11.9107L21.0043 13.9904C21.3156 14.3686 21.36 14.6995 21.36 15.0776L20.7375 17.3464C20.6041 17.9136 20.2484 17.9136 19.8038 17.9136H16.8693L16.6024 19.0008H20.9154C21.5823 18.9535 21.9825 18.5281 22.0714 17.8191L22.7829 14.9358C22.9607 14.2741 22.7384 13.8014 22.3827 13.4705Z" fill="#1D1D1B"/>
<path d="M29.5852 13.14L29.8965 11.7693L30.5634 8.88597C30.6523 8.1297 30.43 7.70431 29.8965 7.60975C29.8075 7.5625 29.7186 7.5625 29.6297 7.5625H25.4056L23.5827 14.7944L22.5155 19.0012H23.5827H23.9829L26.6062 8.74415H28.3402C28.6959 8.83871 28.9183 9.02778 28.9183 9.40591L28.2069 12.5255C28.1179 13.0455 27.8067 13.3764 27.2731 13.5654L25.9392 13.8491L25.7169 14.9362L28.607 14.369C29.0961 14.2272 29.4963 13.8491 29.5852 13.14Z" fill="#1D1D1B"/>
<path d="M44.9699 7.5625H43.2358L42.3465 11.013L41.3683 14.8416L40.3012 19.0012H41.3683H42.0353L42.3465 17.725L44.9699 7.5625Z" fill="#1D1D1B"/>
<path d="M60.3542 7.5625H59.2869H58.6643L55.6853 19.0012H57.4197L59.2869 11.8166L60.3542 7.5625Z" fill="#1D1D1B"/>
<path d="M67.9571 14.2742C68.046 13.9433 68.2239 13.707 68.5352 13.707H70.7137L71.025 12.7144H68.7575C68.4907 12.5253 68.4462 12.2417 68.5796 11.8636L69.2467 9.3111C69.3801 8.93297 69.6464 8.7439 70.0022 8.69665H71.9589H72.7593L72.9812 7.94038L73.1146 7.46769H72.9812H72.0033H69.2912C68.6686 7.42044 68.1349 7.65676 67.8681 8.41302L66.2672 15.0305L65.6451 17.6302C65.4672 18.1974 65.6006 18.6701 66.2672 18.8592C66.3117 18.8592 66.4006 18.9064 66.4451 18.9064H70.18L70.4913 17.7247H67.6013C67.3789 17.5356 67.2011 17.5356 67.29 16.9684L67.9571 14.2742Z" fill="#1D1D1B"/>
<path d="M78.8957 7.5625H73.7821L72.9377 10.7767L71.9594 14.6053L70.8476 18.9539H71.9594H72.9377H76.0501C76.8056 18.9067 77.2503 18.4813 77.4282 17.6777L79.7406 8.55509C79.8296 7.98789 79.5183 7.60975 78.8957 7.5625ZM77.8729 9.64223L75.9612 16.7324C75.9167 17.2996 75.5609 17.6777 74.8494 17.725H73.0267C72.9822 17.725 72.9377 17.725 72.8932 17.6777C72.7154 17.5832 72.7154 17.3468 72.8043 17.1105L72.8932 16.7796L75.1607 8.60239H77.3837C77.9618 8.64965 78.0508 9.02778 77.8729 9.64223Z" fill="#1D1D1B"/>
<path d="M60.7094 16.921L66.1782 9.50004L66.5785 8.93284C67.0676 8.17657 66.8898 7.60938 66.1782 7.60938C66.1782 7.60938 66.1783 7.60938 66.1338 7.60938H61.1541L61.1097 8.64921H64.1776C64.5778 8.64921 64.8002 8.83828 64.5334 9.21641L59.2864 16.5429L58.3975 17.7718C58.0417 18.339 58.1751 18.7645 58.7977 19.048H59.2864H64.2221L64.5334 17.7718H60.7984C60.4426 17.6773 60.3981 17.2046 60.7094 16.921Z" fill="#1D1D1B"/>
<path d="M47.9932 7.60975L42.3464 18.8594L42.2574 19.0485H42.3464H43.5913L48.0377 10.0677L48.4378 10.1149L48.6602 12.6201C48.838 13.2346 48.4378 13.1873 48.3045 13.1873H47.0595L46.8371 14.1326L48.3045 14.1799C48.5712 14.2272 48.7046 14.369 48.6602 14.6526L48.9269 18.9067H50.4387L49.8162 7.5625L47.9932 7.60975Z" fill="#1D1D1B"/>
<path d="M52.7508 16.9214L55.1517 7.5625H53.4179L50.8389 17.6304C50.7944 18.1976 51.0167 18.8121 51.728 19.0012H55.1517L55.5074 17.7723L53.0621 17.725C52.7508 17.6777 52.6174 17.3941 52.7508 16.9214Z" fill="#1D1D1B"/>
</g>
<defs>
<clipPath id="clip0_1_393">
<rect width="78.8334" height="32" fill="white" transform="translate(0.906258)"/>
</clipPath>
</defs>
</svg>
