<svg width="90" height="21" viewBox="0 0 90 21" fill="none" xmlns="http://www.w3.org/2000/svg">
<g clip-path="url(#clip0_1_371)">
<g clip-path="url(#clip1_1_371)">
<path d="M0.906258 0.228516H4.38173V20.6073H0.906258V0.228516Z" fill="#221F1F"/>
<path d="M10.325 20.0256C9.22695 19.375 8.35808 18.4818 7.7184 17.3496C7.0753 16.2174 6.75717 14.9713 6.75717 13.615C6.75717 12.2549 7.07872 11.0125 7.7184 9.88033C8.35808 8.74818 9.22695 7.85863 10.325 7.20433C11.423 6.55371 12.6135 6.22656 13.8929 6.22656C15.1756 6.22656 16.3626 6.55371 17.4607 7.20433C18.5587 7.85495 19.4276 8.74818 20.0673 9.88033C20.7069 11.0125 21.0285 12.2586 21.0285 13.615C21.0285 14.975 20.7069 16.2174 20.0673 17.3496C19.4242 18.4818 18.5553 19.375 17.4607 20.0256C16.3626 20.6762 15.1722 21.0034 13.8929 21.0034C12.6101 20.9997 11.4197 20.6762 10.325 20.0256ZM15.7229 17.0519C16.2771 16.721 16.7184 16.2542 17.0536 15.6514C17.3854 15.0485 17.553 14.3685 17.553 13.615C17.553 12.8614 17.3854 12.1814 17.0536 11.5786C16.7184 10.9757 16.2771 10.5089 15.7229 10.1781C15.1688 9.84725 14.5599 9.68184 13.8929 9.68184C13.2257 9.68184 12.6169 9.84725 12.0628 10.1781C11.5086 10.5089 11.0673 10.9757 10.7321 11.5786C10.3968 12.1814 10.2326 12.8614 10.2326 13.615C10.2326 14.3685 10.4003 15.0485 10.7321 15.6514C11.0638 16.2542 11.5086 16.721 12.0628 17.0519C12.6169 17.3827 13.2257 17.5481 13.8929 17.5481C14.5599 17.5481 15.1688 17.3827 15.7229 17.0519Z" fill="#221F1F"/>
<path d="M23.4034 0.228516H26.8789V12.3698L31.408 6.62445H35.5436L30.433 13.1049L35.9131 20.6036H31.4627L26.8789 14.1231V20.6036H23.4034V0.228516Z" fill="#221F1F"/>
<path d="M39.1902 20.0952C38.2153 19.4924 37.4251 18.6286 36.8197 17.5074C36.2141 16.3863 35.9097 15.0887 35.9097 13.6147C35.9097 12.2767 36.2005 11.038 36.7786 9.90584C37.3567 8.77369 38.1469 7.87679 39.1492 7.21514C40.1515 6.55349 41.2461 6.22266 42.4399 6.22266C43.2815 6.22266 44.0511 6.37337 44.7455 6.67479C45.4399 6.97621 45.9702 7.38055 46.3396 7.89149V6.61965H49.8151V20.6025H46.3396V19.3306C45.7956 19.8783 45.2142 20.2937 44.6018 20.5767C43.9895 20.8598 43.1959 21.0031 42.2313 21.0031C41.1777 20.9995 40.1652 20.698 39.1902 20.0952ZM45.5254 16.4157C46.1753 15.6622 46.5003 14.7285 46.5003 13.6147C46.5003 12.501 46.1753 11.5673 45.5254 10.8138C44.8755 10.0602 44.0134 9.68162 42.9428 9.68162C41.8721 9.68162 41.0101 10.0602 40.3601 10.8138C39.7102 11.5673 39.3852 12.5046 39.3852 13.6147C39.3852 14.7285 39.7102 15.6622 40.3601 16.4157C41.0101 17.1693 41.8687 17.5479 42.9428 17.5479C44.0134 17.5479 44.8755 17.1693 45.5254 16.4157Z" fill="#221F1F"/>
<path d="M52.8735 0.228516H56.349V20.6073H52.8735V0.228516Z" fill="#221F1F"/>
<path d="M59.5882 4.01745C59.1675 3.56532 58.9554 3.01762 58.9554 2.37435C58.9554 1.71271 59.1675 1.15398 59.5882 0.690825C60.009 0.227671 60.5187 -0.00390625 61.1173 -0.00390625C61.7331 -0.00390625 62.253 0.227671 62.684 0.690825C63.115 1.15398 63.3306 1.71638 63.3306 2.37435C63.3306 3.01762 63.115 3.56165 62.684 4.01745C62.253 4.46957 61.7296 4.69748 61.1173 4.69748C60.5187 4.69748 60.0125 4.47325 59.5882 4.01745ZM59.4036 6.62361H62.879V20.6065H59.4036V6.62361Z" fill="#221F1F"/>
<path d="M65.2528 19.6433L66.043 16.1329H66.2004C67.3429 17.0776 68.5094 17.5481 69.7032 17.5481C70.1958 17.5481 70.5926 17.4489 70.9005 17.2504C71.2084 17.0519 71.3623 16.7651 71.3623 16.3865C71.3623 15.9895 71.181 15.6697 70.8218 15.4235C70.4626 15.1772 69.7888 14.8758 68.807 14.5192C67.8047 14.1627 67.0282 13.6407 66.4775 12.9607C65.9267 12.2806 65.6462 11.4793 65.6462 10.5567C65.6462 9.25544 66.0978 8.20783 67.0043 7.41385C67.9073 6.61987 69.0533 6.22656 70.4421 6.22656C71.1433 6.22656 71.7694 6.2964 72.3132 6.43976C72.8572 6.58312 73.3736 6.81102 73.8662 7.13449L73.9962 10.7H73.8116C73.1787 10.2663 72.6177 9.93915 72.1251 9.72227C71.6325 9.5054 71.0818 9.39512 70.4661 9.39512C70.0282 9.39512 69.6656 9.49069 69.3851 9.67816C69.1046 9.86563 68.9644 10.1119 68.9644 10.4133C68.9644 10.8103 69.1388 11.1338 69.4912 11.3911C69.8435 11.6447 70.5003 11.9535 71.4683 12.31C72.5733 12.707 73.4113 13.1886 73.9826 13.7546C74.5539 14.3207 74.8378 15.1992 74.8378 16.3865C74.8378 17.368 74.6086 18.2061 74.1536 18.9045C73.6953 19.6029 73.0966 20.1249 72.3509 20.4741C71.6052 20.8233 70.7842 20.996 69.8879 20.996C68.0784 20.9997 66.5322 20.5476 65.2528 19.6433Z" fill="#221F1F"/>
<path d="M79.7415 20.0109C78.6537 19.3493 77.7951 18.4487 77.1725 17.3092C76.55 16.166 76.2387 14.8978 76.2387 13.501C76.2387 12.141 76.5329 10.9096 77.1212 9.80682C77.7096 8.70407 78.5271 7.82922 79.5705 7.18963C80.6138 6.55003 81.7973 6.22656 83.1144 6.22656C84.4484 6.22656 85.6047 6.56106 86.5761 7.23006C87.5511 7.89906 88.2865 8.79229 88.7894 9.90606C89.2888 11.0198 89.5419 12.2181 89.5419 13.501V14.6038H79.5603C79.7723 15.6624 80.2238 16.4637 80.9183 17.0078C81.6127 17.5554 82.5294 17.8275 83.6719 17.8275C85.4097 17.8275 86.9285 17.2136 88.2284 15.9895H88.5978L88.4678 19.5257C87.6776 20.0183 86.843 20.3858 85.9638 20.6284C85.0847 20.8747 84.2432 20.996 83.4359 20.996C82.0574 20.9997 80.8293 20.6725 79.7415 20.0109ZM86.063 12.0564C85.9741 11.2073 85.6457 10.542 85.0744 10.0604C84.5032 9.57891 83.8053 9.33999 82.9809 9.33999C82.1737 9.33999 81.4656 9.57156 80.8601 10.0347C80.2546 10.4979 79.8476 11.1705 79.6354 12.0601H86.063V12.0564Z" fill="#221F1F"/>
</g>
</g>
<defs>
<clipPath id="clip0_1_371">
<rect width="88.6875" height="21" fill="white" transform="translate(0.906258)"/>
</clipPath>
<clipPath id="clip1_1_371">
<rect width="88.6875" height="21" fill="white" transform="translate(0.906258)"/>
</clipPath>
</defs>
</svg>
