<svg width="129" height="28" viewBox="0 0 129 28" fill="none" xmlns="http://www.w3.org/2000/svg">
<g clip-path="url(#clip0_1_8)">
<g clip-path="url(#clip1_1_8)">
<path d="M24.177 17.4004H19.9483H17.1392H16.4454L12.2166 21.6911L7.98791 17.4004H7.29406H4.48497H0.256248V21.6911H6.23614L9.22639 24.7256L12.2166 27.7601L15.2069 24.7256L18.1965 21.6911H24.177V17.4004Z" fill="#FF6336"/>
<path d="M24.177 8.81641H0.256248V13.1077H24.177V8.81641Z" fill="#FFC500"/>
<path d="M24.177 0.234375H0.256248V4.52568H24.177V0.234375Z" fill="#A4A14A"/>
<path d="M33.6873 0.234375H37.4915V21.292H33.6873V0.234375Z" fill="black"/>
<path d="M43.4127 20.6922C42.2114 20.0193 41.2603 19.0983 40.5595 17.9281C39.8575 16.7585 39.5074 15.4711 39.5074 14.0676C39.5074 12.664 39.8575 11.3772 40.5595 10.207C41.2603 9.03736 42.2114 8.11582 43.4127 7.44293C44.6128 6.77004 45.9152 6.43359 47.318 6.43359C48.7202 6.43359 50.022 6.77004 51.2233 7.44293C52.4234 8.11582 53.3745 9.03678 54.0765 10.207C54.7773 11.3766 55.1286 12.664 55.1286 14.0676C55.1286 15.4711 54.7779 16.7579 54.0765 17.9281C53.3745 19.0977 52.4234 20.0193 51.2233 20.6922C50.022 21.3651 48.7202 21.7015 47.318 21.7015C45.9152 21.7015 44.6134 21.3651 43.4127 20.6922ZM49.3211 17.6217C49.9262 17.2806 50.411 16.798 50.7762 16.174C51.1408 15.55 51.3243 14.8483 51.3243 14.0681C51.3243 13.2886 51.1414 12.5868 50.7762 11.9623C50.411 11.3383 49.9262 10.8557 49.3211 10.5145C48.7162 10.1734 48.0479 10.0025 47.318 10.0025C46.5876 10.0025 45.9205 10.1734 45.3148 10.5145C44.7098 10.8557 44.2244 11.3383 43.8592 11.9623C43.4934 12.5862 43.3117 13.2886 43.3117 14.0681C43.3117 14.8483 43.4934 15.55 43.8592 16.174C44.2239 16.798 44.7092 17.2806 45.3148 17.6217C45.9199 17.9629 46.587 18.1338 47.318 18.1338C48.0479 18.1332 48.7156 17.9629 49.3211 17.6217Z" fill="black"/>
<path d="M57.1448 0.234375H60.949V12.7813L65.9059 6.84426H70.4301L64.8393 13.5419L70.8337 21.292H65.9633L60.949 14.5943V21.292H57.1448V0.234375Z" fill="black"/>
<path d="M74.423 20.766C73.3564 20.142 72.4919 19.2499 71.8294 18.0898C71.1663 16.9302 70.8347 15.5891 70.8347 14.0683C70.8347 12.6842 71.1519 11.4068 71.7859 10.2372C72.4199 9.0676 73.2845 8.14134 74.3801 7.45903C75.4752 6.77671 76.6753 6.43555 77.9824 6.43555C78.9044 6.43555 79.7451 6.59169 80.5035 6.90339C81.2623 7.21509 81.8435 7.63461 82.2471 8.16079V6.84447H86.0514V21.2922H82.2471V19.9759C81.6514 20.5415 81.0173 20.9699 80.3449 21.2627C79.672 21.555 78.8075 21.7017 77.7507 21.7017C76.5987 21.7023 75.4897 21.39 74.423 20.766ZM81.3541 16.9644C82.0647 16.1848 82.4207 15.2197 82.4207 14.0689C82.4207 12.9188 82.0647 11.9536 81.3541 11.1735C80.6434 10.3939 79.7016 10.0039 78.5299 10.0039C77.3576 10.0039 76.4158 10.3945 75.7051 11.1735C74.9944 11.9536 74.639 12.9188 74.639 14.0689C74.639 15.2197 74.9944 16.1848 75.7051 16.9644C76.4158 17.7445 77.357 18.134 78.5299 18.134C79.7016 18.134 80.6434 17.7445 81.3541 16.9644Z" fill="black"/>
<path d="M88.8186 0.234375H92.623V21.292H88.8186V0.234375Z" fill="black"/>
<path d="M95.5921 4.15283C95.131 3.68499 94.9005 3.11934 94.9005 2.45647C94.9005 1.77415 95.131 1.19435 95.5921 0.716494C96.053 0.239224 96.6105 0 97.2637 0C97.9356 0 98.5075 0.239224 98.9782 0.716494C99.4483 1.19435 99.6848 1.77415 99.6848 2.45647C99.6848 3.11934 99.4493 3.68499 98.9782 4.15283C98.5075 4.62068 97.9356 4.8546 97.2637 4.8546C96.6105 4.85519 96.053 4.62068 95.5921 4.15283ZM95.39 6.84381H99.1941V21.2915H95.39V6.84381Z" fill="black"/>
<path d="M101.789 20.2948L102.654 16.6682H102.826C104.075 17.6434 105.353 18.1306 106.66 18.1306C107.198 18.1306 107.634 18.0281 107.971 17.8237C108.307 17.6192 108.476 17.3222 108.476 16.9316C108.476 16.5221 108.278 16.1909 107.884 15.9376C107.49 15.6842 106.755 15.3725 105.68 15.0013C104.585 14.6313 103.735 14.0945 103.13 13.3927C102.525 12.6909 102.221 11.8625 102.221 10.9068C102.221 9.56159 102.716 8.47919 103.705 7.66017C104.695 6.84115 105.948 6.43164 107.467 6.43164C108.235 6.43164 108.917 6.5047 109.513 6.65083C110.109 6.79696 110.675 7.03618 111.213 7.36732L111.358 11.0523H111.156C110.464 10.6039 109.849 10.2681 109.311 10.0436C108.773 9.81967 108.168 9.70712 107.496 9.70712C107.015 9.70712 106.621 9.80494 106.315 9.99938C106.007 10.1944 105.854 10.4484 105.854 10.7601C105.854 11.1696 106.046 11.506 106.43 11.7694C106.813 12.0328 107.535 12.3498 108.591 12.7198C109.801 13.1293 110.719 13.6266 111.343 14.2117C111.968 14.7962 112.28 15.703 112.28 16.9316C112.28 17.9456 112.03 18.8135 111.53 19.5348C111.031 20.2565 110.373 20.7975 109.556 21.1581C108.74 21.5187 107.841 21.699 106.862 21.699C104.882 21.699 103.191 21.2311 101.789 20.2948Z" fill="black"/>
<path d="M117.639 20.6763C116.448 19.9939 115.512 19.063 114.83 17.8834C114.147 16.7037 113.806 15.3927 113.806 13.9497C113.806 12.5462 114.128 11.2735 114.772 10.1333C115.416 8.99258 116.31 8.09107 117.453 7.4282C118.595 6.76533 119.888 6.43359 121.328 6.43359C122.788 6.43359 124.052 6.78006 125.118 7.4718C126.184 8.16414 126.991 9.08509 127.539 10.2358C128.086 11.3866 128.36 12.6245 128.36 13.9503V15.091H117.437C117.668 16.1834 118.162 17.0119 118.921 17.577C119.681 18.1426 120.684 18.4248 121.934 18.4248C123.835 18.4248 125.497 17.7914 126.919 16.524H127.323L127.178 20.1795C126.314 20.6869 125.401 21.0669 124.44 21.3203C123.48 21.5736 122.557 21.7003 121.673 21.7003C120.176 21.6997 118.83 21.3586 117.639 20.6763ZM124.557 12.4578C124.46 11.5804 124.099 10.8928 123.476 10.3961C122.851 9.8994 122.087 9.65016 121.185 9.65016C120.301 9.65016 119.527 9.88938 118.864 10.3666C118.202 10.8445 117.754 11.5416 117.524 12.4578H124.557Z" fill="black"/>
</g>
</g>
<defs>
<clipPath id="clip0_1_8">
<rect width="128.104" height="28" fill="white" transform="translate(0.256248)"/>
</clipPath>
<clipPath id="clip1_1_8">
<rect width="128.104" height="28" fill="white" transform="translate(0.256248)"/>
</clipPath>
</defs>
</svg>
