<svg width="115" height="25" viewBox="0 0 115 25" fill="none" xmlns="http://www.w3.org/2000/svg">
<path d="M0.906258 12.3126V24.6157H3.37972H5.85319V19.6157V14.5862L7.74883 14.6453L9.64448 14.7043L12.5538 19.6453L15.4429 24.5862L18.2915 24.6157C19.8323 24.6157 21.1096 24.5764 21.1096 24.5173C21.1096 24.4582 19.7918 22.1748 18.2002 19.4484C16.5884 16.722 15.2503 14.4484 15.2098 14.3795C15.1692 14.3008 15.6558 14.0055 16.3147 13.6807C17.8252 12.9523 19.3457 11.5842 19.9945 10.3441C20.8967 8.58226 20.9474 5.48187 20.0756 3.83817C19.1734 2.13541 17.0649 0.698399 14.7435 0.216114C14.0846 0.0783195 11.1752 -0.0102558 7.28253 -0.0102558H0.906258V12.3126ZM14.0339 4.61573C15.1692 5.1177 15.747 6.01337 15.747 7.31258C15.747 8.51337 15.2301 9.43856 14.267 9.95037C13.6892 10.2456 12.9695 10.3244 9.73572 10.3736L5.86332 10.4523V7.32242V4.1925H9.52284C12.6755 4.21218 13.2939 4.27124 14.0339 4.61573Z" fill="black"/>
<path d="M79.6212 12.5197V24.626H81.9933H84.3654V12.5197V0.413372H81.9933H79.6212V12.5197Z" fill="black"/>
<path d="M105.826 11.7514C105.887 21.0821 105.887 21.1215 106.363 22.0565C106.9 23.1195 108.178 24.3203 109.212 24.7337C109.658 24.9109 110.692 25.0093 112.172 25.0093H114.442V23.0112V21.0132H113.125C112.121 21.0132 111.705 20.9148 111.269 20.59L110.732 20.1864V15.4817V10.8065H112.587H114.442V8.90692V7.00731H112.587H110.732V4.70416V2.40101H108.238H105.765L105.826 11.7514Z" fill="black"/>
<path d="M27.4453 6.98783C25.7727 7.52917 24.6373 8.21814 23.431 9.44846C22.1943 10.7477 21.6165 11.7516 21.2008 13.4544C20.0959 18.0213 22.1233 22.3914 26.2491 24.291C27.5264 24.8914 27.6886 24.9209 30.2635 24.9209C32.5646 24.9209 33.112 24.8618 34.1358 24.4485C35.5753 23.8874 37.5014 22.2437 38.2617 20.8855L38.7989 19.9111L37.1466 18.976C36.2444 18.4544 35.4233 18.041 35.332 18.041C35.2509 18.041 34.8961 18.4445 34.5312 18.917C33.7101 20.0784 32.595 20.7772 31.2366 21.0429C30.0303 21.2693 29.1484 21.1414 28.1042 20.6197C26.8675 20.0193 25.6308 18.4445 25.6308 17.4406C25.6308 17.037 25.7119 17.037 32.4328 17.037H39.2348V15.3638C39.2348 11.5252 37.4101 8.69058 33.9838 7.22405C32.5139 6.55476 29.1078 6.45633 27.4453 6.98783ZM33.0106 10.8953C33.5479 11.2595 34.0649 11.8303 34.3893 12.4996L34.9265 13.5233L30.3547 13.5823C27.8407 13.6118 25.7423 13.5823 25.6815 13.5233C25.3976 13.2477 26.8776 11.4563 27.9116 10.8559C28.9659 10.226 29.1484 10.1965 30.6183 10.2555C31.9158 10.3146 32.2909 10.3933 33.0106 10.8953Z" fill="black"/>
<path d="M64.8109 6.91907C62.1549 7.64741 59.7017 9.54701 58.6982 11.6828C57.9784 13.2478 57.6642 15.6494 57.9784 17.4604C58.7793 22.1947 62.378 25.0293 67.6594 25.0293C70.7512 25.0293 72.8091 24.301 74.8061 22.5687C75.9617 21.545 76.7423 20.2655 77.2491 18.5431C77.685 17.0765 77.5837 13.8088 77.0667 12.4112C76.2152 10.1474 73.9748 8.05095 71.4406 7.17497C69.8693 6.61395 66.4024 6.486 64.8109 6.91907ZM69.8288 11.3876C72.7178 12.6277 73.6707 16.3679 71.7244 18.8482C70.3457 20.61 67.4364 21.2695 65.4799 20.2754C64.4155 19.7143 63.2497 18.4742 62.9254 17.5096C62.5097 16.3088 62.753 14.173 63.4018 13.238C64.8616 11.0923 67.3958 10.3738 69.8288 11.3876Z" fill="black"/>
<path d="M39.0929 7.29322C39.1537 7.43102 40.8061 11.3976 42.7626 16.0924L46.3308 24.6357L48.5712 24.5767L50.8115 24.5176L54.2885 16.2105C56.2044 11.6436 57.8264 7.7066 57.8973 7.44086L58.0291 6.97826L55.5151 7.03732L52.9808 7.09637L50.7912 12.7361C49.595 15.8365 48.5509 18.3168 48.4901 18.2381C48.409 18.1594 47.3952 15.6003 46.2193 12.5393L44.0804 6.99794H41.5258C39.468 7.01763 39.0017 7.07668 39.0929 7.29322Z" fill="black"/>
<path d="M86.8288 12.4799C86.8288 15.5606 86.9301 18.4543 87.0619 19.1236C87.5079 21.5645 88.8562 23.2476 91.1472 24.3007C92.465 24.9011 92.6171 24.9307 95.2933 24.9307C97.9087 24.9307 98.152 24.8913 99.3076 24.3696C101.599 23.3362 103.058 21.5055 103.504 19.1334C103.636 18.474 103.738 15.5704 103.738 12.4897V7.02712H101.396H99.0237L98.9629 12.47C98.9021 17.6964 98.8818 17.972 98.4257 18.7692C97.7667 19.97 96.6516 20.4917 94.9892 20.3933C93.5091 20.3145 92.6576 19.8224 92.0798 18.6905C91.7351 18.0114 91.6946 17.3322 91.6338 12.4602L91.5729 7.01728H89.2008H86.8592V12.4799H86.8288Z" fill="black"/>
</svg>
